<svg width="38" height="38" viewBox="0 0 38 38" fill="none" xmlns="http://www.w3.org/2000/svg">
<path fill-rule="evenodd" clip-rule="evenodd" d="M19 38C29.4934 38 38 29.4934 38 19C38 8.50659 29.4934 0 19 0C8.50659 0 0 8.50659 0 19C0 29.4934 8.50659 38 19 38ZM15.4006 25.4382C14.8502 26.0574 14.906 27.0055 15.5252 27.5559C16.1444 28.1063 17.0925 28.0505 17.6429 27.4313L24.2516 19.9965C24.7567 19.4282 24.7567 18.5718 24.2516 18.0035L17.6429 10.5687C17.0925 9.9495 16.1444 9.89373 15.5252 10.4441C14.906 10.9945 14.8502 11.9426 15.4006 12.5618L21.1235 19L15.4006 25.4382Z" fill="white" fill-opacity="0.86"/>
</svg>
