<svg width="19" height="17" fill="none" xmlns="http://www.w3.org/2000/svg"><path fill-rule="evenodd" clip-rule="evenodd" d="M4.122 4.25h11.506c.033 0 .885.001.885.85l-.885 5.1c-.079.418-.38.85-.828.85H5.892l.084 1.104c.062.28.321.596.617.596h7.802c.033 0 .065.005.096.013.642.09 1.137.621 1.137 1.262 0 .703-.596 1.275-1.328 1.275-.732 0-1.327-.572-1.327-1.275 0-.149.026-.292.076-.425H7.587c.049.133.075.276.075.425 0 .703-.595 1.275-1.327 1.275s-1.328-.572-1.328-1.275c0-.41.202-.774.516-1.008a1.756 1.756 0 01-.339-.7l-.346-1.584L2.352 1.7H.987c-.224 0-.405-.24-.405-.457A.4.4 0 01.987.85h1.862c.187 0 .349.124.394.3l.88 3.1z" fill="#282F36" fill-opacity=".3"/></svg>